<svg xmlns="http://www.w3.org/2000/svg" viewBox="0 0 60.42 60.54"><defs><style>.cls-1{fill:none;stroke:#231f20;stroke-linecap:round;stroke-linejoin:round;}</style></defs><g id="Layer_2" data-name="Layer 2"><g id="Layer_1-2" data-name="Layer 1"><path class="cls-1" d="M46.82,30.28A16.56,16.56,0,1,1,30.26,13.72,16.56,16.56,0,0,1,46.82,30.28Z"/><line class="cls-1" x1="30.26" y1="5.71" x2="30.26" y2="0.5"/><line class="cls-1" x1="0.55" y1="30.28" x2="5.77" y2="30.28"/><line class="cls-1" x1="47.58" y1="47.6" x2="51.68" y2="51.7"/><line class="cls-1" x1="8.84" y1="8.86" x2="12.94" y2="12.96"/><line class="cls-1" x1="12.94" y1="47.6" x2="8.84" y2="51.7"/><line class="cls-1" x1="51.68" y1="8.86" x2="47.58" y2="12.96"/><line class="cls-1" x1="47.58" y1="12.96" x2="51.68" y2="8.86"/><line class="cls-1" x1="8.84" y1="51.7" x2="12.94" y2="47.6"/><line class="cls-1" x1="47.53" y1="47.65" x2="51.63" y2="51.75"/><line class="cls-1" x1="8.79" y1="8.91" x2="12.89" y2="13.01"/><line class="cls-1" x1="30.21" y1="54.83" x2="30.21" y2="60.04"/><line class="cls-1" x1="30.21" y1="0.62" x2="30.21" y2="5.84"/><line class="cls-1" x1="5.71" y1="30.33" x2="0.5" y2="30.33"/><line class="cls-1" x1="59.92" y1="30.33" x2="54.7" y2="30.33"/></g></g></svg>