<svg xmlns="http://www.w3.org/2000/svg" viewBox="0 0 58.2 47.1"><defs><style>.cls-1{fill:none;stroke:#231f20;stroke-linecap:round;stroke-linejoin:round;}</style></defs><g id="Layer_2" data-name="Layer 2"><g id="Layer_1-2" data-name="Layer 1"><path class="cls-1" d="M44.42,27.12A9.86,9.86,0,0,1,42.25,46.6H10.36C4.92,46.6.5,42.73.5,37.28a9.88,9.88,0,0,1,7.58-9.6,7.81,7.81,0,0,1-.42-2.53A7.95,7.95,0,0,1,21.19,19.5h0a12.3,12.3,0,0,1,23.5,5.08,22.14,22.14,0,0,1-.27,2.54Z"/><path class="cls-1" d="M32.09,12.21C32.09,5.65,37,1.25,43.38.5A9.52,9.52,0,1,0,57.69,13c0,.06,0,.12,0,.18A12.81,12.81,0,0,1,44.89,26"/></g></g></svg>