<svg xmlns="http://www.w3.org/2000/svg" viewBox="0 0 70.12 46.77"><defs><style>.cls-1{fill:none;stroke:#231f20;stroke-linecap:round;stroke-linejoin:round;}</style></defs><g id="Layer_2" data-name="Layer 2"><g id="Layer_1-2" data-name="Layer 1"><path class="cls-1" d="M47.4,25.46a10.53,10.53,0,0,1-2.32,20.81H11C5.21,46.27.5,42.13.5,36.32A10.53,10.53,0,0,1,8.59,26.07a8.37,8.37,0,0,1-.44-2.71,8.48,8.48,0,0,1,14.44-6h0a13.13,13.13,0,0,1,25.09,5.42,24.23,24.23,0,0,1-.28,2.71Z"/><path class="cls-1" d="M20.15,15.65V14.24c0-4.94,5.79-8.48,10.48-8.48a8.47,8.47,0,0,1,6,2.45h0a13.13,13.13,0,0,1,25.09,5.42,24.23,24.23,0,0,1-.28,2.71h0a10.53,10.53,0,0,1-2.32,20.81H55.62"/></g></g></svg>