<svg xmlns="http://www.w3.org/2000/svg" viewBox="0 0 61.72 62.62"><defs><style>.cls-1{fill:none;stroke:#231f20;stroke-linecap:round;stroke-linejoin:round;}</style></defs><g id="Layer_2" data-name="Layer 2"><g id="Layer_1-2" data-name="Layer 1"><path class="cls-1" d="M52.17,18a11.61,11.61,0,0,1-2.55,22.93H12.1c-6.4,0-11.6-4.56-11.6-11A11.61,11.61,0,0,1,9.41,18.62a9.49,9.49,0,0,1-.48-3A9.34,9.34,0,0,1,24.83,9h0a14.47,14.47,0,0,1,27.64,6,26.53,26.53,0,0,1-.31,3Z"/><line class="cls-1" x1="15.48" y1="48.03" x2="14.48" y2="55.12"/><line class="cls-1" x1="25.85" y1="48.03" x2="23.85" y2="62.12"/><line class="cls-1" x1="36.6" y1="48.03" x2="34.6" y2="62.12"/><line class="cls-1" x1="46.97" y1="48.03" x2="45.97" y2="55.12"/></g></g></svg>