<svg xmlns="http://www.w3.org/2000/svg" viewBox="0 0 62.46 63.14"><defs><style>.cls-1{fill:none;stroke:#231f20;stroke-linecap:round;stroke-linejoin:round;}</style></defs><g id="Layer_2" data-name="Layer 2"><g id="Layer_1-2" data-name="Layer 1"><line class="cls-1" x1="10.72" y1="51.72" x2="9.94" y2="57.21"/><line class="cls-1" x1="18.76" y1="51.72" x2="17.21" y2="62.64"/><line class="cls-1" x1="27.09" y1="51.72" x2="25.54" y2="62.64"/><line class="cls-1" x1="35.14" y1="51.72" x2="34.36" y2="57.21"/><path class="cls-1" d="M38.9,28.05a8.63,8.63,0,0,1-1.9,17H9.12C4.36,45.09.5,41.7.5,36.94a8.61,8.61,0,0,1,6.62-8.39,7.07,7.07,0,0,1-.36-2.22,6.94,6.94,0,0,1,11.82-4.94h0a10.76,10.76,0,0,1,20.55,4.44,19.85,19.85,0,0,1-.23,2.22Z"/><path class="cls-1" d="M31.86,15.66a10.84,10.84,0,1,1,12.86,17"/><line class="cls-1" x1="39.98" y1="4.71" x2="39.95" y2="0.5"/><line class="cls-1" x1="57.74" y1="24.53" x2="61.96" y2="24.5"/><line class="cls-1" x1="53.41" y1="10.08" x2="56.37" y2="7.08"/><line class="cls-1" x1="25.5" y1="10.08" x2="22.54" y2="7.08"/><line class="cls-1" x1="54.71" y1="39.77" x2="51.76" y2="36.77"/></g></g></svg>