<svg xmlns="http://www.w3.org/2000/svg" viewBox="0 0 52.19 59.37"><defs><style>.cls-1{fill:none;stroke:#231f20;stroke-linecap:round;stroke-linejoin:round;}</style></defs><g id="Layer_2" data-name="Layer 2"><g id="Layer_1-2" data-name="Layer 1"><line class="cls-1" x1="8.91" y1="47.95" x2="8.13" y2="53.44"/><line class="cls-1" x1="16.95" y1="47.95" x2="15.4" y2="58.87"/><line class="cls-1" x1="25.29" y1="47.95" x2="23.73" y2="58.87"/><line class="cls-1" x1="33.33" y1="47.95" x2="32.55" y2="53.44"/><path class="cls-1" d="M35.09,25.61A7.77,7.77,0,0,1,33.38,41H8.27C4,41,.5,37.9.5,33.62a7.78,7.78,0,0,1,6-7.56,6.27,6.27,0,0,1,5.93-8.25,6.22,6.22,0,0,1,4.4,1.81h0a9.69,9.69,0,0,1,18.51,4,17.5,17.5,0,0,1-.21,2Z"/><path class="cls-1" d="M37.88,26C45,26,51.69,20.28,51.69,13.21c0-.06,0-.12,0-.18A9.52,9.52,0,1,1,37.37.5c-6.36.75-11.3,5.15-11.3,11.71"/></g></g></svg>