<svg xmlns="http://www.w3.org/2000/svg" viewBox="0 0 61.42 62.18"><defs><style>.cls-1{fill:#231f20;}.cls-1,.cls-2{stroke:#231f20;stroke-linecap:round;stroke-linejoin:round;}.cls-2{fill:none;}</style></defs><g id="Layer_2" data-name="Layer 2"><g id="Layer_1-2" data-name="Layer 1"><polygon class="cls-1" points="29.3 41.31 24.18 50.82 28.66 50.56 22.96 61.67 38.98 47.15 33.59 47.52 36.76 40.74 29.3 41.31"/><path class="cls-2" d="M51.92,17.86a11.55,11.55,0,0,1-2.54,22.82H12.05C5.67,40.68.5,36.14.5,29.76A11.55,11.55,0,0,1,9.37,18.53a9.11,9.11,0,0,1-.49-3A9.3,9.3,0,0,1,24.71,9h0a14.4,14.4,0,0,1,27.51,5.94,27.4,27.4,0,0,1-.3,3Z"/></g></g></svg>