<svg height="495pt" viewBox="0 -67 495.96399 495" width="495pt" xmlns="http://www.w3.org/2000/svg"><path d="m439.964844 160.480469c.019531-50.0625-35.628906-93.035157-84.835938-102.261719-49.203125-9.226562-98 17.914062-116.117187 64.582031-52.96875-10.597656-106.457031 15.703125-130.398438 64.128907-32.984375-7.945313-67.597656 3.773437-88.964843 30.125-21.367188 26.351562-25.683594 62.640624-11.097657 93.269531 14.589844 30.628906 45.488281 50.144531 79.414063 50.15625h248c27.023437.054687 51.792968-15.050781 64.113281-39.101563 12.324219-24.050781 10.113281-52.980468-5.714844-74.882812 28.511719-19.347656 45.585938-51.558594 45.601563-86.015625zm-104 184h-248c-28.457032-.027344-54.230469-16.8125-65.757813-42.832031-11.527343-26.015626-6.652343-56.382813 12.445313-77.480469 19.097656-21.101563 48.828125-28.972657 75.863281-20.085938 3.9375 1.289063 8.207031-.640625 9.839844-4.449219 18.363281-42.953124 63.121093-68.394531 109.421875-62.199218 46.304687 6.199218 82.796875 42.511718 89.21875 88.785156.605468 4.355469 4.609375 7.40625 8.96875 6.832031 2.648437-.367187 5.324218-.554687 8-.570312 30.925781 0 56 25.074219 56 56 0 30.929687-25.074219 56-56 56zm47.382812-110.070313c-13.082031-11.550781-29.933594-17.925781-47.382812-17.929687-.800782 0-1.601563 0-2.402344.050781-8.671875-41.714844-38.714844-75.753906-79.023438-89.546875 14.34375-35.175781 49.644532-57.179687 87.546876-54.5625 37.898437 2.613281 69.84375 29.253906 79.21875 66.070313 9.375 36.816406-5.933594 75.492187-37.964844 95.917968zm0 0"/><path d="m487.964844 152.480469h-32c-4.417969 0-8 3.582031-8 8s3.582031 8 8 8h32c4.417968 0 8-3.582031 8-8s-3.582032-8-8-8zm0 0"/><path d="m335.964844 48.480469c4.417968 0 8-3.582031 8-8v-32c0-4.417969-3.582032-8-8-8-4.417969 0-8 3.582031-8 8v32c0 4.417969 3.582031 8 8 8zm0 0"/><path d="m420.652344 83.792969c2.121094 0 4.15625-.84375 5.65625-2.34375l22.625-22.625c2.078125-2.007813 2.910156-4.980469 2.179687-7.777344s-2.917969-4.980469-5.714843-5.714844c-2.796876-.730469-5.769532.101563-7.777344 2.183594l-22.625 22.621094c-2.289063 2.289062-2.972656 5.730469-1.734375 8.71875s4.15625 4.9375 7.390625 4.9375zm0 0"/><path d="m426.308594 239.515625c-3.140625-3.035156-8.128906-2.988281-11.214844.097656-3.085938 3.085938-3.128906 8.074219-.097656 11.210938l22.625 22.625c3.136718 3.03125 8.128906 2.988281 11.214844-.097657 3.085937-3.085937 3.128906-8.074218.097656-11.214843zm0 0"/><path d="m245.621094 81.449219c2.007812 2.082031 4.980468 2.914062 7.777344 2.183593 2.796874-.734374 4.984374-2.917968 5.714843-5.714843s-.101562-5.769531-2.179687-7.78125l-22.625-22.621094c-2.007813-2.082031-4.984375-2.914063-7.78125-2.183594-2.796875.734375-4.980469 2.917969-5.714844 5.714844-.730469 2.796875.105469 5.769531 2.183594 7.777344zm0 0"/><path d="m135.964844 304.480469h-64c-4.417969 0-8 3.582031-8 8s3.582031 8 8 8h64c4.417968 0 8-3.582031 8-8s-3.582032-8-8-8zm0 0"/><path d="m166.363281 304.640625c-.5.089844-.984375.25-1.4375.480469-.492187.160156-.953125.402344-1.363281.722656-.457031.273438-.886719.59375-1.277344.957031-1.464844 1.535157-2.292968 3.5625-2.320312 5.679688-.027344 2.679687 1.296875 5.1875 3.527344 6.671875 2.226562 1.484375 5.050781 1.746094 7.511718.691406.96875-.40625 1.863282-.976562 2.640625-1.683594 1.503907-1.503906 2.339844-3.550781 2.320313-5.679687-.03125-2.117188-.859375-4.144531-2.320313-5.679688-1.914062-1.886719-4.644531-2.695312-7.28125-2.160156zm0 0"/></svg>